<svg xmlns="http://www.w3.org/2000/svg" width="651" height="97"  xmlns:v="https://vecta.io/nano"><path d="M442.891 30.632h16.754v63.25h-16.754zm161.632 47.925c3.896 2.468 11.559 5.066 17.924 5.066 7.662 0 10.909-2.988 10.909-7.014 0-4.415-2.859-6.494-11.3-8.962-13.377-3.768-19.092-10.649-19.092-18.572 0-11.171 9.741-20.001 25.586-20.001 7.663 0 14.414 1.818 18.313 4.025l-3.248 11.431c-2.727-1.429-8.57-3.897-14.933-3.897-5.978 0-9.482 2.729-9.482 6.753 0 4.155 3.505 6.106 12.208 8.703 12.598 3.767 18.052 9.482 18.184 19.353 0 11.039-8.963 20.001-27.276 20.001-8.57 0-15.975-1.948-21.171-4.677l3.378-12.209zM1.111 49.724c0-7.272-.13-13.638-.519-19.092h14.676l.779 10.13h.39c2.728-4.803 10.13-11.688 21.95-11.688 11.168 0 24.546 6.754 24.546 28.443v36.365H46.179V59.596c0-10-4.027-17.144-13.638-17.144-7.273 0-12.079 5.064-13.898 9.87-.519 1.302-.779 3.247-.779 4.936v36.625H1.111V49.724zm82.118 17.144c.52 10.648 10.13 16.104 21.3 16.104 8.313 0 14.028-1.17 19.482-3.117l2.597 11.3c-5.974 2.338-13.896 4.286-24.286 4.286-21.819 0-34.938-12.858-34.938-32.34 0-16.234 10.78-34.028 33.378-34.028 22.859 0 29.613 18.572 29.613 31.299 0 2.729-.261 5.197-.648 6.495H83.229zm31.3-11.558c.13-4.418-2.207-15.066-14.806-15.066-11.039 0-15.584 8.962-16.494 15.066h31.3zm36.359-41.042v16.364h16.234v12.469h-16.234v26.364c0 7.795 1.688 12.338 8.701 12.338 3.377 0 4.937-.259 6.885-.778l.388 12.596c-2.596.913-7.143 1.821-12.598 1.821-6.234 0-11.429-2.338-14.546-5.586-3.506-3.896-5.065-10-5.065-18.053v-53.25l16.235-4.285zm47.588 64.289c3.896 2.468 11.558 5.066 17.923 5.066 7.662 0 10.91-2.988 10.91-7.014 0-4.415-2.857-6.494-11.299-8.962-13.377-3.768-19.092-10.649-19.092-18.572 0-11.171 9.742-20.001 25.586-20.001 7.663 0 14.416 1.818 18.313 4.025L237.57 44.53c-2.728-1.429-8.573-3.897-14.936-3.897-5.975 0-9.481 2.729-9.481 6.753 0 4.155 3.506 6.106 12.208 8.703 12.599 3.767 18.053 9.482 18.183 19.353 0 11.039-8.961 20.001-27.275 20.001-8.571 0-15.975-1.948-21.17-4.677l3.377-12.209zM318.792.89h16.755v92.992h-16.755V.89zm82.468 73.9c0 7.664.128 14.028.52 19.092h-14.677l-.779-10.52h-.39c-2.728 4.679-9.351 12.079-22.21 12.079-11.559 0-24.025-6.362-24.025-28.442V30.632h16.753V64.01c0 11.041 3.896 17.925 13.248 17.925 7.145 0 11.948-4.675 13.896-9.354.649-1.296.911-2.985.911-4.673V30.632h16.753V74.79zm21.075-60.522v16.364h16.234v12.469h-16.234v26.364c0 7.795 1.688 12.338 8.7 12.338 3.379 0 4.936-.259 6.884-.778l.391 12.596c-2.599.913-7.144 1.821-12.599 1.821-6.234 0-11.43-2.338-14.545-5.586-3.506-3.896-5.067-10-5.067-18.053v-53.25l16.236-4.285zm113.809 35.456c0-7.272-.131-13.638-.519-19.092H550.3l.779 10.13h.39c2.729-4.803 10.13-11.688 21.95-11.688 11.17 0 24.546 6.754 24.546 28.443v36.365h-16.754V59.596c0-10-4.025-17.144-13.638-17.144-7.272 0-12.079 5.064-13.897 9.87-.52 1.302-.778 3.247-.778 4.936v36.625h-16.754V49.724zm-38.32-23.201c-18.904 0-34.23 15.326-34.23 34.232s15.326 34.23 34.23 34.23 34.23-15.326 34.23-34.23-15.325-34.232-34.23-34.232zm0 54.69c-11.3 0-20.46-9.159-20.46-20.458s9.16-20.459 20.46-20.459 20.458 9.16 20.458 20.459-9.159 20.458-20.458 20.458z" fill="#231f20"/><linearGradient id="A" gradientUnits="userSpaceOnUse" x1="255.54" y1="41.031" x2="282.327" y2="84.932"><stop offset="0" stop-color="#deb772"/><stop offset=".315" stop-color="#e9242c"/><stop offset="1" stop-color="#9f3988"/></linearGradient><path fill="url(#A)" d="M274.519 89.351c12.54-.742 22.604-9.707 25.147-21.261-2.671 8.19-10.361 14.115-19.443 14.115-1.772 0-3.481-.249-5.121-.673-11.914-1.886-21.54-11.736-22.767-24.449-1.068-11.083 4.55-21.245 13.518-26.405-11.724 5.432-19.861 17.297-19.861 31.069 0 4.561.899 8.91 2.519 12.89 4.78 9.282 14.801 15.377 26.008 14.714z"/><linearGradient id="B" gradientUnits="userSpaceOnUse" x1="301.377" y1="34.71" x2="256.485" y2="65.714"><stop offset="0" stop-color="#82d1e0"/><stop offset=".315" stop-color="#3d9fc7"/><stop offset="1" stop-color="#691d59"/></linearGradient><path fill="url(#B)" d="M280.223 27.515c-5.133 0-9.999 1.137-14.37 3.163-8.968 5.16-14.586 15.321-13.518 26.405 1.228 12.713 10.853 22.563 22.767 24.449-8.817-2.275-15.34-10.258-15.34-19.785a20.6 20.6 0 0 1 .328-3.553c1.102-12.336 10.723-22.738 23.669-24.475 11.412-1.528 22.105 4.125 27.432 13.441-5.476-11.608-17.282-19.645-30.968-19.645z"/><linearGradient id="C" gradientUnits="userSpaceOnUse" x1="248.511" y1="69.117" x2="307.593" y2="69.117"><stop offset="0" stop-color="#82d1e0"/><stop offset=".315" stop-color="#3d9fc7"/><stop offset="1" stop-color="#691d59"/></linearGradient><path fill="url(#C)" d="M307.586 68.379c-.285-12.862-9.281-23.451-21.147-26.122 8.258 2.632 14.242 10.359 14.242 19.49 0 2.216-.363 4.344-1.015 6.343-2.543 11.554-12.608 20.519-25.147 21.261-11.207.663-21.228-5.432-26.008-14.714 5.094 12.515 17.369 21.341 31.712 21.341a34.12 34.12 0 0 0 10.715-1.722c9.982-4.198 16.904-14.27 16.648-25.877z"/><linearGradient id="D" gradientUnits="userSpaceOnUse" x1="309.114" y1="79.58" x2="272.902" y2="37.911"><stop offset="0" stop-color="#bfc231"/><stop offset=".315" stop-color="#9cba3d"/><stop offset="1" stop-color="#2a6875"/></linearGradient><path fill="url(#D)" d="M283.76 33.72c-12.947 1.736-22.568 12.139-23.669 24.475 1.685-9.602 10.046-16.905 20.132-16.905a20.43 20.43 0 0 1 6.216.968c11.867 2.671 20.863 13.26 21.147 26.122.256 11.607-6.666 21.679-16.648 25.877 13.654-4.498 23.515-17.349 23.515-32.509a34.07 34.07 0 0 0-3.261-14.586c-5.327-9.317-16.02-14.971-27.432-13.442z"/></svg>